<?xml version="1.0" encoding="UTF-8"?>
<svg width="24px" height="24px" viewBox="0 0 24 24" version="1.1" xmlns="http://www.w3.org/2000/svg" xmlns:xlink="http://www.w3.org/1999/xlink">
    <title>Icon/Mini_Brekeke@2x</title>
    <g id="Icon/Mini_Brekeke" stroke="none" stroke-width="1" fill="none" fill-rule="evenodd">
        <path d="M16.5959035,6.77626612 C16.1914963,6.77626612 15.8634917,6.44537835 15.8634917,6.03699219 C15.8634917,5.62879597 16.1914963,5.29790821 16.5959035,5.29790821 C17.000499,5.29790821 17.3283154,5.62879597 17.3283154,6.03699219 C17.3283154,6.44537835 17.000499,6.77626612 16.5959035,6.77626612 Z M9.51002589,13.6479806 C11.0809853,13.4549944 12.2213799,13.743334 12.6553321,14.1139207 C12.7181855,14.1674858 12.7938354,14.2474535 12.7972228,14.3236223 C12.8009864,14.4098583 12.6790432,14.5768217 12.3980846,14.7559418 C11.0369503,15.62324 7.66826979,15.8703611 5.76140204,14.9589952 C6.62610719,14.3566731 7.97858509,13.8362182 9.51002589,13.6479806 Z M20.7139324,7.37250991 C20.3213808,6.62202911 19.5797479,6.04326044 18.5772921,5.65424888 C18.3996465,4.71249139 17.58067,4 16.5959035,4 C15.824914,4 15.1553556,4.43668827 14.8154954,5.07813947 C13.9283963,5.08858656 12.9752447,5.17805162 11.9756117,5.35204312 C7.18012068,6.18610062 2.90269999,10.012394 3.00168474,13.3793955 C3.01993858,14.0037515 3.20021878,14.5682741 3.53349252,15.0596671 C3.47722552,15.1472327 3.42547494,15.235938 3.37861715,15.325593 C2.96047246,16.1241304 2.94221862,16.9783223 3.3276193,17.7307026 C3.79092813,18.6350405 4.84381721,19.2846594 6.45730621,19.6617043 C7.41553877,19.885272 8.56985899,20 9.7477022,20 C12.0301851,19.9998101 14.4005498,19.56939 15.6009751,18.669231 L14.6649482,17.3975354 C13.4957615,18.274521 9.58511128,18.7980151 6.75426045,18.1371893 C5.65827725,17.8813306 4.89688508,17.4368545 4.66504248,16.9842107 C4.57640785,16.8113588 4.50358067,16.4893986 4.68555453,16.1341976 C4.75461803,16.1761759 4.86376471,16.2356293 4.93696825,16.2749484 C7.34647527,17.5692476 11.4473794,17.2349408 13.2360677,16.0952584 C14.2089786,15.4754612 14.3870006,14.7511931 14.3649831,14.252772 C14.3422128,13.7402949 14.1015256,13.2739749 13.6692671,12.9047178 C12.7959055,12.1587957 11.1707491,11.8484223 9.32052468,12.0755989 C7.5030443,12.2987867 5.83065373,12.9596125 4.67144073,13.8563525 C4.60934004,13.693378 4.5758433,13.5188166 4.57038596,13.3324786 C4.49548876,10.7792103 8.29548682,7.59968659 12.2420802,6.91321794 C13.141223,6.75670157 13.9507902,6.67882328 14.674922,6.66039841 C14.9359331,7.48039984 15.6969489,8.07417432 16.5959035,8.07417432 C17.2686611,8.07417432 17.8629459,7.74043735 18.2297164,7.22966973 C18.8055592,7.49217656 19.1687542,7.81109766 19.3262641,8.11235368 C19.5511439,8.54201391 19.4196034,9.01555191 18.9354061,9.52005129 C18.4320141,10.0443051 17.9496987,10.4612389 17.4833789,10.8644965 C16.332446,11.8594392 15.3384585,12.7187596 15.0894912,14.3914334 C14.9263357,15.4860983 15.2549049,16.5644277 16.03982,17.5096042 C16.7647045,18.382031 17.9052873,19.1118076 18.6162462,19.1306123 L18.6162462,17.4907994 C18.4192176,17.4628772 17.6623418,17.0681672 17.1265822,16.3438991 C16.7172822,15.7907733 16.5541267,15.2131443 16.641444,14.6267778 C16.8036586,13.5380013 17.4801798,12.9529644 18.5044649,12.0676212 C18.9749247,11.6607546 19.5084262,11.1995631 20.0624397,10.622504 C21.0155913,9.62927084 21.2592895,8.41436949 20.7139324,7.37250991 L20.7139324,7.37250991 Z" id="Fill-1" fill="#6CB644"></path>
    </g>
</svg>
